HIERARCHY
ROOT Hips
{
	OFFSET 0.000000 88.474243 0.000000
	CHANNELS 6 Xposition Yposition Zposition Zrotation Yrotation Xrotation 
	JOINT Hips_Spine
	{
		OFFSET 0.000000 0.000000 0.000000
		CHANNELS 3 Zrotation Yrotation Xrotation
		JOINT Spine
		{
			OFFSET 0.005100 8.711998 -0.691000
			CHANNELS 3 Zrotation Yrotation Xrotation
			JOINT Spine1
			{
				OFFSET -0.009200 8.660301 -1.275000
				CHANNELS 3 Zrotation Yrotation Xrotation
				JOINT Spine2
				{
					OFFSET 0.006300 9.852501 -1.857000
					CHANNELS 3 Zrotation Yrotation Xrotation
					JOINT Spine2_Neck
					{
						OFFSET 0.000000 0.000000 0.000000
						CHANNELS 3 Zrotation Yrotation Xrotation
						JOINT Neck
						{
							OFFSET 0.016300 11.420799 -0.263300
							CHANNELS 3 Zrotation Yrotation Xrotation
							End Site #name: Head
							{
								OFFSET -0.019200 9.262405 2.362500
							}
						}
					}
					JOINT Spine2_LeftShoulder
					{
						OFFSET 0.000000 0.000000 0.000000
						CHANNELS 3 Zrotation Yrotation Xrotation
						JOINT LeftShoulder
						{
							OFFSET 5.616900 6.732201 -0.345700
							CHANNELS 3 Zrotation Yrotation Xrotation
							JOINT LeftArm
							{
								OFFSET 10.664888 -0.183372 -2.440700
								CHANNELS 3 Zrotation Yrotation Xrotation
								JOINT LeftForeArm
								{
									OFFSET 27.459126 0.000000 0.000000
									CHANNELS 3 Zrotation Yrotation Xrotation
									End Site #name: LeftHand
									{
										OFFSET 21.306858 0.000000 0.000000
									}
								}
							}
						}
					}
					JOINT Spine2_RightShoulder
					{
						OFFSET 0.000000 0.000000 0.000000
						CHANNELS 3 Zrotation Yrotation Xrotation
						JOINT RightShoulder
						{
							OFFSET -5.580300 6.737503 -0.344400
							CHANNELS 3 Zrotation Yrotation Xrotation
							JOINT RightArm
							{
								OFFSET -10.679335 -0.188484 -2.383900
								CHANNELS 3 Zrotation Yrotation Xrotation
								JOINT RightForeArm
								{
									OFFSET -27.503529 0.000000 0.000000
									CHANNELS 3 Zrotation Yrotation Xrotation
									End Site #name: RightHand
									{
										OFFSET -21.306808 0.000000 0.000000
									}
								}
							}
						}
					}
				}
			}
		}
	}
	JOINT Hips_LeftUpLeg
	{
		OFFSET 0.000000 0.000000 0.000000
		CHANNELS 3 Zrotation Yrotation Xrotation
		JOINT LeftUpLeg
		{
			OFFSET 6.857700 -6.739601 0.312100
			CHANNELS 3 Zrotation Yrotation Xrotation
			JOINT LeftLeg
			{
				OFFSET -0.367590 -34.731552 -4.572400
				CHANNELS 3 Zrotation Yrotation Xrotation
				End Site #name: LeftFoot
				{
					OFFSET 0.367590 -34.656704 -6.067400
				}
			}
		}
	}
	JOINT Hips_RightUpLeg
	{
		OFFSET 0.000000 0.000000 0.000000
		CHANNELS 3 Zrotation Yrotation Xrotation
		JOINT RightUpLeg
		{
			OFFSET -6.876100 -6.733299 0.301000
			CHANNELS 3 Zrotation Yrotation Xrotation
			JOINT RightLeg
			{
				OFFSET 0.347353 -34.795158 -4.515900
				CHANNELS 3 Zrotation Yrotation Xrotation
				End Site #name: RightFoot
				{
					OFFSET -0.347353 -34.589367 -6.070300
				}
			}
		}
	}
}
MOTION
Frames: 6
Frame Time: 0.041667
0.178597 0.044889 -0.021207 1.501575 17.203630 -6.197929 -0.000000 0.000000 0.000000 0.017646 -2.062904 -0.431042 0.501373 -1.591424 -1.802513 0.000000 0.000000 0.000000 0.262908 -0.920868 -1.941358 3.841078 0.660694 -4.656591 0.673758 -1.709235 -2.622503 -15.690879 -5.361399 2.165092 -47.249710 -0.906173 7.457940 -0.557858 -34.381821 6.132038 0.633164 -1.330499 -1.106982 12.566219 10.869198 4.576639 57.518273 -7.872175 -6.433737 -0.813440 54.429025 0.470643 0.000000 0.000000 0.000000 -10.698144 20.381583 -4.953679 -1.790729 -2.792236 23.471650 0.000000 0.000000 0.000000 -5.476061 17.986724 -9.333273 8.290095 3.263126 -2.113864 
0.761083 -0.034589 0.110597 3.562990 16.377827 -6.642064 -0.000000 0.000000 0.000000 -2.073132 -2.340788 -0.824858 0.773583 -1.741494 -2.083209 0.000000 0.000000 0.000000 0.409504 -0.857773 -3.178300 4.433711 -1.390432 -2.526879 0.074321 -1.668715 -3.969523 -20.739692 -2.844336 1.156055 -45.359441 0.053056 -5.016060 -0.982725 -28.528203 4.062056 0.237540 -1.651363 -1.223010 12.508551 8.172250 1.846799 60.769804 -2.762396 -8.265912 -1.021091 56.593747 -1.120200 0.000000 0.000000 -0.000000 -13.960545 17.859309 -1.755909 -0.850112 0.936407 21.008657 0.000000 0.000000 0.000000 -9.631092 21.162593 -10.169914 8.994045 3.821077 -0.388832 
1.082466 -0.068473 0.116050 5.172647 13.516314 -6.847674 -0.000000 0.000000 -0.000000 -3.575913 -3.381088 -0.571237 0.735610 -1.589983 -2.274285 0.000000 0.000000 0.000000 0.807941 -1.355540 -3.183856 3.650575 -2.578409 -2.591388 -0.301594 -1.708938 -3.702480 -23.840153 -2.230852 2.791315 -46.085403 5.686289 -8.928032 -1.383180 -28.827378 4.047386 0.271374 -1.695535 -1.248157 11.446197 7.186377 2.040678 60.072175 -0.708418 -6.119582 -0.458149 50.378515 -0.795169 0.000000 0.000000 -0.000000 -15.878191 17.606976 0.499541 -1.220623 1.507104 18.886241 0.000000 0.000000 0.000000 -12.257041 22.792755 -13.979884 8.813553 2.539681 6.823050 
1.346428 -0.088895 0.071455 5.970638 11.364688 -6.896048 -0.000000 0.000000 -0.000000 -5.243071 -3.138022 0.466662 0.681070 -1.557454 -2.301757 0.000000 0.000000 0.000000 0.956128 -1.532239 -3.211757 3.466628 -4.116644 -2.024035 -0.312975 -1.768307 -3.608997 -25.061217 -1.983320 4.265121 -44.987688 7.310878 -8.510816 -1.015470 -27.498334 6.480322 0.334109 -1.758189 -1.256473 9.930187 7.263641 1.875179 59.552379 1.510583 -4.683439 -0.225664 50.260697 -0.656630 0.000000 0.000000 -0.000000 -16.879293 18.073830 1.181469 -1.706705 1.965176 18.037011 0.000000 0.000000 0.000000 -14.209857 22.462488 -17.726950 8.595510 2.129637 14.987812 
1.655717 -0.090979 0.012132 6.301565 10.757517 -6.656113 -0.000000 0.000000 -0.000000 -6.282911 -2.622199 0.659871 0.554144 -1.522232 -2.346726 0.000000 0.000000 0.000000 0.674751 -1.653046 -3.414004 3.401315 -5.027474 -1.826226 -0.372301 -1.875388 -3.718224 -26.601871 -1.651353 5.409835 -42.294206 7.765114 -8.666168 -0.438458 -23.907778 8.624599 0.276673 -1.808672 -1.334703 8.036772 7.438719 1.707748 60.176259 2.479556 -4.392742 -0.152207 51.930240 -0.764659 0.000000 0.000000 -0.000000 -17.434113 18.593937 1.418586 -2.042261 2.264482 17.551879 0.000000 0.000000 0.000000 -15.623621 21.532313 -20.046867 8.365118 2.109123 20.696073 
1.996772 -0.080570 -0.051980 6.377410 10.463104 -6.497242 -0.000000 0.000000 -0.000000 -6.520662 -2.144918 0.104910 0.334854 -1.493699 -2.474787 0.000000 0.000000 0.000000 0.276585 -1.724511 -3.669380 3.222949 -5.359880 -1.785457 -0.582002 -1.958666 -3.938967 -28.415578 -1.047900 6.069654 -40.176988 7.797537 -8.272459 -0.011800 -19.726069 10.029647 0.132571 -1.867481 -1.503900 6.316275 7.529571 1.529122 61.684457 2.215444 -5.244039 0.015425 52.204516 -0.773897 0.000000 0.000000 -0.000000 -17.800378 19.003793 1.350791 -1.960150 2.577781 17.236403 0.000000 0.000000 0.000000 -16.540270 20.432266 -20.950614 8.104382 2.350085 23.953713 
